# xmcd
#
# Track frame offsets:
#	150
#	10320
#	22108
#	35670
#	46767
#	62374
#	74379
#	87419
#	99362
#	112997
#	130426
#	146053
#	159019
#	176797
#	190655
#	215701
#
# Disc length: 2888 seconds
#
# Revision: 1
# Processed by: cddbd v1.5.2PL0 Copyright (c) Steve Scherf et al.
# Submitted via: audiograbber 1.83.01
#
DISCID=dc0b4610
DTITLE=Sound Choice - SC8258
DYEAR=1900
DGENRE=
TTITLE0=Cash, Johnny - Guess Things Happen That Way
TTITLE1=Cline, Patsy - Blue Moon Of Kentucky
TTITLE2=Gibson, Don - Sea Of Heartbreak
TTITLE3=Hamilton IV, George - Abilene
TTITLE4=Robbins, Marty - Don't Worry
TTITLE5=Conwat Twitty - Desperado Love
TTITLE6=Watson, Gene - Fourteen Carat Mind
TTITLE7=Locklin, Hank - Please Help Me I'm Falling (In Love With You)
TTITLE8=Anderson, John - Straight Tequila Night
TTITLE9=Cline, Patsy - Faded Love
TTITLE10=Greenwood, Lee - I O U
TTITLE11=Murray, Anne - A Love Song
TTITLE12=Nelson, Willie - Whiskey River
TTITLE13=Conway Twitty - Tight Fittin' Jeans
TTITLE14=Jones, George - I Don't Need Your Rockin' Chair
TTITLE15=x - Data Track
EXTD=
EXTT0=
EXTT1=
EXTT2=
EXTT3=
EXTT4=
EXTT5=
EXTT6=
EXTT7=
EXTT8=
EXTT9=
EXTT10=
EXTT11=
EXTT12=
EXTT13=
EXTT14=
EXTT15=
PLAYORDER=
